<?xml version="1.0" encoding="UTF-8"?>
<svg id="Layer_2" xmlns="http://www.w3.org/2000/svg" viewBox="0 0 600.93 588.24">
  <defs>
    <style>
      .cls-1 {
        fill: #feda00;
      }

      .cls-2 {
        fill: #febc12;
      }

      .cls-3 {
        fill: #3d3d3d;
      }

      .cls-4 {
        fill: #ff8022;
      }

      .cls-5 {
        fill: #edbf00;
      }

      .cls-6 {
        fill: #fff;
      }

      .cls-7 {
        fill: #eb5224;
      }
    </style>
  </defs>
  <g id="Layer_3_copy">
    <g>
      <path class="cls-1" d="M72.06,119.54c-.2-1.7,5.3-13.3,5.8-14.9C83.16,87.84,117.86-6.36,228.16.34c114.5,6.9,144.4,83.3,149.3,117.1,5.8,39.8-5.1,68.4-30.4,108.1-13.4,21,9.4,55.8,39.8,52.8,4-.4,28-3.9,37.3-17.1,19.6-28,57.3-72.9,96.9-64.5,0,0,38.8,1.9,40.1,61.4.08,3.61.93,7.15,2.5,10.4,12.5,25.5,77.7,139.3-.8,242.4-.1.2-84.4,119.9-407.8,61-30.93-5.52-60.28-17.74-86-35.8-4.54-3.24-8.88-6.74-13-10.5-32.6-27.9-55.8-96.9-22.2-160.9,12.6-23.9,27.8-45,69.5-69.6,10.64-6.23,14.21-19.91,7.98-30.55-1.2-2.04-2.71-3.88-4.48-5.45-7-6.1-19.5-9.9-24.1-19.6-.4-.9,5.6-5.2,5.5-6.2l-16.2-113.8Z"/>
      <path class="cls-5" d="M61.46,530.34c-2.2-1.8-4-3.4-5.4-4.7"/>
      <path class="cls-2" d="M351.76,365.24c13.4,3.7,38.7,10.8,69.5-3.8,33.1-20.6,74.7-6.4,76.5,31.6,1.2,24.8-6.5,55.8-51.6,93.4-6.2,5.2-15.7,11.3-26.2,17-36.5,19.6-132.4,44.5-196.9-9.4-13.53-11.29-23.19-26.54-27.6-43.6-8.4-32.2-5.6-81.5,67.4-93.3,20.2-1.7,38.5-5.9,88.9,8.1Z"/>
      <path class="cls-4" d="M81.26,119.34c2.9,10.2,7.5,25.4,16,34.5.55.68,1.19,1.28,1.9,1.8,5.8,4.2,51.5,12.7,31.3,55.3-.2.5-6.5,11.2-13.1,17.4-5.22,4.74-11.73,7.84-18.7,8.9-12.5,2-38.9,5.7-49.2,2.9-3.98-1.24-7.43-3.78-9.8-7.2-2.06-3.87-2.28-8.45-.6-12.5,1.2-2.34,2.64-4.56,4.3-6.6,1.8-2.4,9.2-8.9,12.4-13,4.3-5.4,5.1-11-.5-14.5-13.8-8.6-42.5-26.9-53.8-57.6-.77-2.16-1.24-4.41-1.4-6.7-.2-4.3,0-10.9,3-15.9,2.29-4.1,7.36-5.72,11.6-3.7,10.1,4.7,36,15.3,54.5,9.8,5.2-1.7,10.5,1.3,12.1,7.1Z"/>
      <path class="cls-7" d="M72.66,195.84c-3.2,9.8-30.2,23.4-21.5,33.2,8.8,10,27.1-5.1,52.5-17.2,8.7-4.1,11.7-15.4,9.7-17.8-4.7-5.5-22.5,5.9-40.7,1.8Z"/>
      <g>
        <path class="cls-3" d="M206.14,146.16c-13.52-6.03-32.27-9.24-54.63.8-9.77-7.9-16.07-20.08-15.93-33.47.13-23.43,19.42-42.71,42.98-42.71,23.43.13,42.71,19.55,42.71,42.98-.13,12.99-6.03,24.64-15.13,32.4Z"/>
        <g>
          <circle class="cls-6" cx="198.24" cy="108.53" r="14.19"/>
          <circle class="cls-6" cx="176.01" cy="89.92" r="10.58"/>
          <circle class="cls-6" cx="174.94" cy="108.53" r="5.76"/>
        </g>
      </g>
    </g>
  </g>
</svg>