<?xml version="1.0" encoding="UTF-8"?>
<svg id="Layer_2" xmlns="http://www.w3.org/2000/svg" viewBox="0 0 470.16 760.97">
  <defs>
    <style>
      .cls-1 {
        fill: #e2cfcf;
      }

      .cls-2 {
        fill: #eaeaea;
      }

      .cls-3 {
        fill: #42120d;
      }

      .cls-4 {
        fill: #ad4225;
      }

      .cls-5 {
        fill: #fff;
      }

      .cls-6 {
        fill: #f7f7f7;
      }

      .cls-7 {
        fill: #6d2c1d;
      }

      .cls-8 {
        fill: #e388ab;
      }

      .cls-9 {
        fill: #592219;
      }

      .cls-10 {
        fill: #a0604a;
      }
    </style>
  </defs>
  <g id="Layer_1-2" data-name="Layer_1">
    <g>
      <g>
        <g>
          <g>
            <path class="cls-10" d="M165.35,172.17S182.59,39.44,65.9,2.08c-4.14-.22-8.17,1.66-10.91,5.15-16.8,21.1-69.56,103.6,24.85,211.8-.1-.03,55.12,18.27,85.5-46.86Z"/>
            <path class="cls-7" d="M150.1,181.81s5.64-95.2-63.64-123.98c-4.6-.98-9.12,1.96-10.49,6.95-6.47,23.39-19.35,91.85,32.38,140.27.1.01,38.07,13.77,41.75-23.23Z"/>
          </g>
          <g>
            <path class="cls-10" d="M300.54,171.33S281.65,38.83,397.87.03c4.14-.27,8.19,1.55,10.97,5.02,17.06,20.89,70.84,102.73-22.23,212.09.1-.03-54.89,18.95-86.08-45.8Z"/>
            <path class="cls-7" d="M315.9,180.78s-6.82-95.12,62.1-124.76c4.59-1.03,9.14,1.85,10.57,6.81,6.76,23.3,20.49,91.6-30.64,140.66-.1.01-37.9,14.24-42.03-22.71Z"/>
          </g>
        </g>
        <g id="head">
          <path class="cls-10" d="M469.31,492.29c-4.48-60.24-23.24-90.02-32.23-147.78-21.93-142.35-105.68-203.45-206.86-199.99-101.11,1.19-183.31,66.19-201.52,209.46C21.32,412.12,3.25,442.75.35,503.16c-7.55,161.79,108.3,258.67,235.93,257.81h0c.66-.01,1.42-.03,1.99-.04.66-.01,1.42-.03,1.99-.04h0c127.67-5.09,240.91-107.22,229.06-268.58h0Z"/>
          <path class="cls-2" d="M165.9,200.21l-8.61,45.62c28.38,142.17,36.71,236.41,38.06,314.83,0,0,77.95,31.12,83.79-.11,0,0,4.12-188.3,33.08-315.24l-11.93-44.47c3.32-17.74-9.8-34.23-27.33-34.37l-79.32-.61c-17.69-.14-31.08,16.44-27.73,34.35Z"/>
        </g>
        <path class="cls-1" d="M47.39,669.59c44.29,59.26,114.59,91.87,188.89,91.37h0c.66-.01,1.42-.03,1.99-.04.66-.01,1.42-.03,1.99-.04h0c71.67-2.86,138.8-36.3,181.8-93.63h0c-76.88-155.07-298.33-154.31-374.14,1.29l-.51,1.05Z"/>
      </g>
      <g>
        <g>
          <g>
            <circle class="cls-3" cx="183.49" cy="596.17" r="17.21"/>
            <circle class="cls-3" cx="285.53" cy="595.53" r="17.21"/>
          </g>
          <g id="mouth">
            <path class="cls-9" d="M284.42,634.2c-16.19,10.91-47.62,26.23-92.3,20.53-7.09-.83-12.55,6-10.1,12.48,5.85,15.63,18.01,30.86,37.51,37.53,20.95,7.16,47.25,1.61,63.14-13.82,12.51-12.15,18.9-29.03,17.03-49.56-.85-7.44-9.24-11.23-15.27-7.15h0Z"/>
            <path class="cls-8" d="M207.75,699.2c3.58,2.2,7.51,4.08,11.79,5.54,20.95,7.16,47.25,1.61,63.14-13.82,3.9-3.79,7.21-8.04,9.85-12.72,0,0-40.89-17.52-84.77,21h0Z"/>
          </g>
        </g>
        <g>
          <g>
            <g>
              <path class="cls-4" d="M64.65,462.79c19.78-6.94,53.91-13.88,92.62.09,5.45-8.84,8.58-19.26,8.28-30.43-.83-30.1-26.17-53.97-56.16-52.82-30.1,1.04-53.97,26.17-52.82,56.16.3,9.87,3.26,19.18,8.09,26.99Z"/>
              <path d="M94.24,455.85c9.95-1.23,21.07-1.53,33.02-.11,6.45-5,10.59-12.83,10.54-21.62-.09-14.98-12.31-27.04-27.28-26.95-14.98.09-27.04,12.31-26.95,27.28.05,8.73,4.24,16.47,10.68,21.39Z"/>
              <path class="cls-5" d="M71.72,460.52c-4.77-7.09-7.69-15.45-7.9-24.65-.91-25.83,19.56-47.84,45.61-48.43,26.05-.59,47.84,19.56,48.43,45.61.35,10.08-2.61,19.59-7.84,27.45,4.82,1.44,9.72,3.19,14.68,5.31,5.61-9.71,8.78-21.06,8.32-33.07-1.17-34.48-29.74-61.42-64.22-60.46-34.48,1.17-61.42,29.74-60.46,64.22.4,10.83,3.43,20.68,8.47,29.32,3.96-1.68,8.99-3.56,14.91-5.3Z"/>
            </g>
            <g>
              <circle class="cls-6" cx="127.23" cy="416.51" r="12.92"/>
              <circle class="cls-6" cx="121.72" cy="441.1" r="7.9"/>
            </g>
          </g>
          <g>
            <g>
              <path class="cls-4" d="M405.86,460.68c-19.86-6.69-54.08-13.21-92.61,1.24-5.56-8.77-8.81-19.15-8.66-30.32.45-30.11,25.5-54.29,55.51-53.51,30.11.67,54.29,25.5,53.51,55.51-.18,9.88-3.02,19.22-7.75,27.09Z"/>
              <path d="M376.18,454.11c-9.96-1.11-21.09-1.27-33.02.3-6.51-4.91-10.75-12.7-10.8-21.49-.09-14.98,11.97-27.19,26.95-27.28,14.98-.09,27.19,11.97,27.28,26.95.05,8.73-4.03,16.52-10.41,21.52Z"/>
              <path class="cls-5" d="M398.75,458.49c4.68-7.15,7.5-15.54,7.59-24.75.59-25.84-20.15-47.6-46.2-47.86-26.05-.27-47.6,20.15-47.86,46.2-.23,10.09,2.85,19.56,8.18,27.35-4.8,1.5-9.68,3.31-14.61,5.49-5.73-9.64-9.04-20.95-8.73-32.96.75-34.49,28.98-61.78,63.47-61.25,34.49.75,61.78,28.98,61.25,63.47-.26,10.84-3.17,20.73-8.11,29.42-3.98-1.63-9.03-3.45-14.97-5.11Z"/>
            </g>
            <g>
              <circle class="cls-6" cx="376.28" cy="414.97" r="12.92"/>
              <circle class="cls-6" cx="370.77" cy="439.56" r="7.9"/>
            </g>
          </g>
        </g>
        <g>
          <path class="cls-9" d="M393.57,309.34c2.03.21,4.17-.33,5.89-1.68,3.79-2.77,4.52-8.18,1.75-11.97-9.22-12.48-35.87-32-70.58-17.03-4.29,1.82-6.38,6.92-4.45,11.22,1.82,4.29,6.92,6.38,11.22,4.45,30.88-13.29,49.37,10.6,50.09,11.57,1.52,2.08,3.73,3.18,6.07,3.44Z"/>
          <path class="cls-9" d="M75.72,351.38c-2.04,0-4.11-.75-5.69-2.28-3.49-3.14-3.66-8.6-.52-12.08,10.44-11.48,38.94-28.18,71.95-9.75,4.08,2.25,5.64,7.53,3.29,11.62-2.25,4.08-7.53,5.64-11.62,3.29-29.36-16.37-50.2,5.51-51.01,6.41-1.72,1.91-4.04,2.78-6.39,2.8Z"/>
        </g>
      </g>
      <path class="cls-9" d="M341.53,176.88c-.53,25.03-12.5,56.04-39.51,83.28-2.71,2.75-7.28.73-7.18-3.03.2-4.55-.86-9.66-4.63-13.62-2.29-2.37-6.27-1.44-7.16,1.75-4.11,15.61-12.83,59.46,7.59,87.43,2.06,2.83-.07,6.71-3.6,6.62-20.71-.9-70.23-8.32-83.74-58.06-1.16-4.09-6.85-4.05-8.08-.06-1.56,5.58-2.88,12.19-2.62,18.56.14,3.53-3.95,5.6-6.69,3.45-42.11-19.35-57.68-49.58-61.52-78.26-7.93-59.25,33.72-113.54,92.74-123.05,12.01-1.94,25.49-2.64,40.54-1.49,9.45.72,19.16,2.32,28.94,4.97,30.42,8.34,55.63,40.01,54.92,71.52Z"/>
    </g>
  </g>
</svg>