<?xml version="1.0" encoding="UTF-8"?>
<svg id="Layer_1" xmlns="http://www.w3.org/2000/svg" version="1.1" viewBox="0 0 612 792">
  <!-- Generator: Adobe Illustrator 29.0.1, SVG Export Plug-In . SVG Version: 2.1.0 Build 192)  -->
  <defs>
    <style>
      .st0 {
        fill: #404040;
      }

      .st1 {
        fill: #ff61c3;
      }

      .st2 {
        fill: #f941ab;
      }

      .st3 {
        fill: #232323;
      }

      .st4 {
        fill: #ff8fd2;
      }

      .st5 {
        fill: #4d4c4d;
      }

      .st6 {
        fill: #c92884;
      }

      .st7 {
        fill: #1e1e1e;
      }

      .st8 {
        fill: #3a3a3a;
      }

      .st9 {
        fill: #303030;
      }

      .st10 {
        fill: #df74a1;
      }

      .st11 {
        fill: #ffb0da;
      }

      .st12 {
        fill: #fff;
      }

      .st13 {
        fill: #676767;
      }

      .st14 {
        opacity: .9;
      }

      .st15 {
        fill: #f6f7f7;
      }

      .st16 {
        fill: #e388ab;
      }

      .st17 {
        fill: #ff83c7;
      }

      .st18 {
        fill: #2d2d2d;
      }

      .st19 {
        fill: #ff69a3;
      }
    </style>
  </defs>
  <g>
    <g>
      <g>
        <path class="st12" d="M888.4,172.9s-20.3-167.6-156-135.4c-4.5,1-8.2,4.1-10.1,8.3-11.7,25.7-43.8,122,88.7,198.7,0,0,64.1,1,77.4-71.6h0Z"/>
        <path class="st10" d="M869.7,194.4s-7-110.2-89-115c-5.2-.3-9.7,3.4-10.5,8.6-3.5,24.5-7.1,95.3,57.1,136.1,0,0,43.9,8.1,42.3-29.7h.1Z"/>
      </g>
      <g>
        <path class="st12" d="M1086.1,166.6s9.6-168.2,146.6-145c4.8.9,9,3.8,11.3,8.1,13.4,25.4,50.6,119.1-76.1,203.5,0,0-64.1,5.1-81.9-66.6h0Z"/>
        <path class="st10" d="M1108.8,186.4s0-110.4,81.5-120.4c5.2-.6,9.9,2.7,11,7.9,5.1,24.2,13.2,94.6-48.4,139.5,0,0-43.3,10.9-44.1-26.9h0Z"/>
      </g>
    </g>
    <g id="head">
      <g>
        <g>
          <path class="st9" d="M923.1,159.1c-3.6-4.3-52.1-54.2-32.2-119.3.6-2.1,2.3-3.4,4-3s7.2,6,10.8,1.8c1-1.2,1.6-2.9,1.6-4.6-.5-20.1,5.1-50.4,39.5-74.5,2.2-1.6,7.4-1.2,8.7,2.4.5,1.2,1,2.4,2,3.3,5.2,4.7,18.6,2.9,24-11.1.4-1.1.6-2.5.6-4.1,0-5.2,4.6-8.7,8.9-7.2C1003.6-52.4,1024.4-34.6,1034.7,0c1,3.1,4.1,4.3,6.4,2.4,4.3-3.4,10.2-8.6,11.9-25.7.4-4.6,7.9-6,10-2,15.1,28.5,45.5,102.1-5.4,180.3-.5.7-1.1,1.4-1.8,1.7-10.4,5.1-88.6,42.3-131.9,3-.5-.2-.7-.3-.9-.6h.1Z"/>
          <path class="st0" d="M1037.3,3c1.2.4,2.5.3,3.6-.6,4.3-3.4,10.2-8.6,11.9-25.7.4-4.6,7.9-6,10-2,15.1,28.5,46,102.8-5.4,180.3-.5.7-1.1,1.4-1.8,1.7-3.3,1.7-19.7,1.2-35.1-7.7,35.8-89.3,16.7-146,16.7-146h.1Z"/>
          <path class="st7" d="M961.1,155.8c4.2,7.3-7.9,19.5-15.3,16.9-7.9-2.9-15.5-7.1-22.1-13.2-.3-.1-.4-.2-.7-.5-3.6-4.3-52.7-56-32.2-119.3.6-2.1,2.3-3.4,4-3,1.8.4,7.5,6.9,11.5,1,.7-1.1,1-2.3,1-3.6-.5-18.8,4.2-45.9,32.6-69.4-.2,0-29.9,101.7,21.2,191.1Z"/>
        </g>
        <path class="st12" d="M1250,493.4c-5.9-60.2-26.4-89.8-37.1-147.5-26-142.2-116.6-202.4-224.8-197.9-108.1,2.3-194.9,68.2-211.8,211.8-6.9,58.2-25.6,89.1-27.7,149.6-5.2,162,120.4,257.6,256.9,255.4h4.2c136.5-6.5,255.8-109.9,240.2-271.2v-.2Z"/>
        <path class="st5" d="M758.7,593.2c32.2,110.5,135.9,173.4,246.8,171.6h4.2c110.9-5.3,210.4-74.5,235.5-186.8h0c-148.4-96.2-342.9-91.6-486.4,15.3h-.2"/>
        <g>
          <g>
            <path class="st8" d="M783.5,319.4s67.4,24,74.8-2.1c3.5-12.4-40.9-36-65.9-28.9,0,0-6.1,16.7-8.9,31h0Z"/>
            <path class="st8" d="M775.2,368.8s69.3,14.7,72.1-10.5c.9-8.5-20.5-28.1-66.4-26.5-.2,0-3.4,13.7-5.7,37h0Z"/>
            <path class="st8" d="M767.3,408.1s13.1,18,57.3,1c7.9-3,8.4-14.3.8-18-15.4-7.7-29.9-9.8-52.1-11.3,0-.1-4,20-6.1,28.3h0Z"/>
          </g>
          <g>
            <path class="st8" d="M1203.7,307.1s-66.1,28.3-75,2.8c-4.2-12.2,38.7-38.5,64.2-33-.2.1,7,16.2,10.8,30.2Z"/>
            <path class="st8" d="M1215,356s-68.3,19.2-72.7-6c-1.5-8.4,18.9-29.4,64.9-30.8,0,0,3.6,13.8,7.8,36.7h0Z"/>
            <path class="st8" d="M1225.4,394.7s-12.1,18.8-57.3,4.6c-8.1-2.5-9.2-13.8-2-17.9,14.9-8.6,29.3-11.7,51.3-14.5,0-.1,5.2,19.7,8,27.8Z"/>
          </g>
        </g>
        <g>
          <path class="st8" d="M922.8,158.2s-13.2,74,12.5,98.1c7.9,7.4,15.5,8.6,19.2-5,6.5-24.3,7.5-69,0-100.3,0-.1-18.4,2.6-31.7,7.2h0Z"/>
          <path class="st8" d="M1007.7,147.9c19,45.2,3.8,96-4.3,129.9-2.2,9.3-14.5,10.4-18.2,1.6-12.6-29.8-29.1-77-19-130,5.8-1.2,31-2.2,41.5-1.5Z"/>
          <path class="st8" d="M1058.1,155s18.5,79.3-10.5,104.6c-24.3,21.2-31-83.6-26.4-110.9-.2,0,18.2,1.2,36.9,6.3h0Z"/>
        </g>
      </g>
    </g>
    <g>
      <g>
        <circle class="st3" cx="938.9" cy="552.7" r="20.9"/>
        <circle class="st3" cx="1062.9" cy="548.8" r="20.9"/>
      </g>
      <g>
        <g>
          <path class="st13" d="M944.8,467.8c9-13.6,13.2-30.5,9.5-47.7-7-33-39.6-54.2-72.5-47s-54.2,39.6-47,72.5c3,14.4,11.1,26.7,21.7,35.1,19.8-9.8,50.7-19.4,88.4-12.9h-.1Z"/>
          <g>
            <g class="st14">
              <circle cx="893.9" cy="430.4" r="31.3"/>
            </g>
            <circle class="st15" cx="909.5" cy="410.4" r="15.8"/>
            <circle class="st15" cx="908.1" cy="441.3" r="9.7"/>
          </g>
        </g>
        <g>
          <path class="st13" d="M1051.6,464.5c-9.9-13-15.1-29.6-12.5-47,4.9-33.4,36.1-56.6,69.4-51.5s56.6,36.1,51.5,69.4c-2.1,14.6-9.4,27.3-19.4,36.4-20.4-8.5-51.8-16.1-89-7.3Z"/>
          <g>
            <g class="st14">
              <circle cx="1099.4" cy="423.9" r="31.3"/>
            </g>
            <circle class="st15" cx="1114.9" cy="403.9" r="15.8"/>
            <circle class="st15" cx="1113.5" cy="434.8" r="9.7"/>
          </g>
        </g>
      </g>
      <g>
        <path class="st18" d="M860.4,362.7c-2,0-4-.7-5.5-2.2-3-2.9-3-7.7,0-10.6,10.4-10.5,38.1-25.3,68.8-6.5,3.5,2.2,4.7,6.8,2.5,10.4-2.2,3.5-6.8,4.7-10.4,2.5-28.3-17.4-49.4,3.4-50.2,4.3-1.4,1.4-3.3,2.2-5.1,2.2h0Z"/>
        <path class="st18" d="M1128.8,338.3c-2,0-4-.6-5.5-2.1-23.5-23-48.9-7.7-50-7-3.5,2.2-8.2,1.1-10.4-2.4-2.2-3.5-1.2-8.1,2.3-10.3,12.4-7.9,42.8-16.2,68.5,8.9,3,2.9,3,7.7,0,10.6-1.4,1.4-3.3,2.2-5.1,2.3h0Z"/>
      </g>
      <g id="mouth-2">
        <path class="st3" d="M952.5,610.8c19.2,10.6,55.8,24.7,105.3,13.9,7.9-1.6,14.6,5.5,12.5,13-5,18.1-17.1,36.3-38.3,45.6-22.7,10.1-52.7,6.4-72-9.3-15.2-12.4-24-30.6-23.9-53.8.2-8.4,9.2-13.5,16.4-9.5h0Z"/>
        <path class="st16" d="M1044.6,676c-3.8,2.8-8,5.3-12.6,7.4-22.7,10.1-52.7,6.4-72-9.3-4.7-3.9-8.8-8.3-12.3-13.3,0,0,44-23.6,96.9,15.2h0Z"/>
      </g>
    </g>
  </g>
  <g>
    <g id="Layer_1-2">
      <g id="ears">
        <g>
          <path class="st11" d="M504.7,207.5l-146.5-82.5c-.7-.4-.6-2.1.1-1.9,17.1,5.8,69.8-44.9,70.8-45.5,41-32.8,95.8-31.1,127,10.2l23.7,31.4c.2.4.4.8.6,1.4,7.2,14.1-5.1,30.5-20.2,27.4-10.9-2.2-22.5-8.6-27.2-7.6l-2.2.4c-7.2,1.6-13.3,6.6-16.4,13.3-5.4,11.8-12,31.6-8,52.3,0,.9-1,1.5-1.7,1.1h0Z"/>
          <path class="st1" d="M472.8,189.4l-83.9-48.6c-.1-.1-.2-.2-.1-.4,2-2.1,15-12.5,32.3-25.6,13.6-10.5,32.6-22.3,50.1-23.6h.2c27.6.6,45.6,20.1,47.2,24.1,6.1,16.2-21.2,23.6-21.2,23.6-7.6,2.4-14.1,7.6-17.8,14.5h0c-3.5,6.8-9.8,20.9-6.5,35.8.2.1,0,.3-.3.2Z"/>
        </g>
        <g>
          <path class="st11" d="M107.3,207.5l146.5-82.5c.7-.4.6-2.1-.1-1.9-17.1,5.8-69.8-44.9-70.8-45.5-41-32.8-95.8-31.1-127,10.2l-23.7,31.4c-.2.4-.4.8-.6,1.4-7.2,14.1,5.1,30.5,20.3,27.4,10.9-2.2,22.5-8.6,27.2-7.6l2.2.4c7.2,1.6,13.3,6.6,16.4,13.3,5.4,11.8,12,31.6,8,52.3,0,.9.8,1.5,1.6,1.1h0Z"/>
          <path class="st1" d="M139.1,189.4l83.9-48.6c.1-.1.2-.2.1-.4-2-2.1-15-12.5-32.3-25.6-13.6-10.4-32.5-22.3-50.1-23.6h-.2c-27.6.7-45.6,20.1-47.2,24.3-6.1,16.2,21.2,23.6,21.2,23.6,7.6,2.4,14.1,7.6,17.8,14.5h0c3.5,6.8,9.7,20.9,6.5,35.8-.1-.1,0,0,.3,0h0Z"/>
        </g>
      </g>
      <path class="st11" d="M587.7,443.2c-4.4-56-26.7-84-36.7-137.9-24.3-132.3-124.5-190.9-246.7-190.1v-.2c-122.7-1.1-223.4,57.4-247.7,190.2-10,53.9-32.3,81.9-36.7,137.9-11.8,150.1,127,242.3,281.5,244.3v.2c156.5,0,298.3-92.8,286.3-244.4h0Z"/>
      <g id="mouth">
        <path class="st6" d="M256.6,538.7c18.3,13,54.1,31.4,105.7,26.1,8.2-.8,14.3,7.2,11.3,14.6-10.7,26.7-37.6,73.7-90.1,59.6-32.6-8.8-51.2-41.9-44.6-92.5,1.1-8.5,10.9-12.7,17.7-7.8h0Z"/>
        <g id="mouth-21" data-name="mouth-2">
          <path class="st19" d="M340.9,627.4c-14.3,11.5-33,18-57.3,11.5-18.9-5.1-33.1-18.4-40.4-38.6,0,0,59.8-17.6,97.7,27.1h0Z"/>
        </g>
      </g>
    </g>
    <g id="nose">
      <path class="st17" d="M403.1,440.4c0,61.4-33.2,91.4-94.2,91.4s-104.5-29.8-104.5-91.4,38.4-96.4,99.4-96.4,99.3,34.9,99.3,96.4h0Z"/>
      <g>
        <path class="st2" d="M287,433.8c0,30.6-11.4,45-25.6,45s-25.7-14.3-25.7-45,11.4-47.4,25.6-47.4,25.7,17,25.7,47.4Z"/>
        <path class="st2" d="M369.2,433.8c0,30.6-11.4,45-25.5,45s-25.6-14.4-25.6-45,11.4-47.4,25.6-47.4,25.5,17,25.5,47.4Z"/>
      </g>
    </g>
    <g>
      <path class="st6" d="M126.2,344c-.9,0-1.7-.1-2.6-.3-5.8-1.4-9.3-7.3-7.9-13.1,4.1-16.5,23-48.7,65.8-52.5,31.3-2.7,57.9,10.9,73.1,37.3,3,5.2,1.2,11.8-4,14.7-5.2,3-11.8,1.2-14.7-4-14.8-25.8-39.2-27.7-52.5-26.5-37.8,3.3-46.4,34.8-46.8,36.2-1.2,4.9-5.6,8.2-10.4,8.2h0Z"/>
      <path class="st6" d="M481.4,344c-4.8,0-9.2-3.3-10.4-8.2-.4-1.5-9.1-32.9-46.8-36.2-13.3-1.1-37.7.8-52.5,26.5-3,5.2-9.5,7-14.7,4s-7-9.5-4-14.7c15.1-26.4,41.8-40,73.1-37.3,42.8,3.7,61.8,35.9,65.8,52.5,1.4,5.8-2.1,11.6-7.9,13-.9.2-1.7.3-2.6.3h0Z"/>
    </g>
  </g>
  <g>
    <circle class="st4" cx="1690.2" cy="401.6" r="379.3"/>
    <g>
      <g>
        <g>
          <path class="st12" d="M1617.7,266.6s-12.1-123.9-112.7-102.4c-3.3.7-6.1,2.9-7.6,6-9.1,18.7-34.3,89.2,62,148,0,0,47.3,1.8,58.3-51.5h0Z"/>
          <path class="st10" d="M1603.5,282.1s-3.3-81.3-63.6-86.3c-3.8-.3-7.2,2.3-7.9,6.1-3,18-6.9,70.1,39.8,101.3,0,0,32.2,6.7,31.7-21.1Z"/>
        </g>
        <g>
          <path class="st12" d="M1763.6,265.3s9.9-123.9,110.6-104.4c3.5.7,6.6,2.9,8.2,6.2,9.5,19,35.3,88.6-59.5,148.7,0,0-47.3,2.6-59.2-50.5h0Z"/>
          <path class="st10" d="M1779.9,280.3s1.9-81.4,62.1-87.4c3.8-.4,7.3,2.2,8,6,3.3,17.9,8.1,70-38.1,102,0,0-32.1,7.3-32-20.6Z"/>
        </g>
      </g>
      <g id="head-2">
        <g>
          <g>
            <path class="st9" d="M1643.5,257c-2.6-3.3-37.5-40.8-21.7-88.5.5-1.5,1.7-2.5,3-2.2s5.2,4.6,7.9,1.5c.8-.9,1.2-2.1,1.2-3.4,0-14.8,4.6-37.1,30.4-54.3,1.7-1.2,5.5-.8,6.3,1.9.3.9.7,1.8,1.4,2.5,3.7,3.5,13.6,2.5,17.9-7.8.3-.8.5-1.9.5-3,0-3.8,3.5-6.3,6.7-5.1,9.2,3.7,24.2,17.2,31.2,42.9.7,2.3,3,3.3,4.7,1.9,3.2-2.4,7.7-6.2,9.2-18.7.4-3.4,5.9-4.3,7.4-1.3,10.6,21.2,31.8,76.1-7,132.8-.4.5-.9,1-1.3,1.3-7.7,3.6-66.1,29.7-97.3,0-.4-.2-.5-.3-.6-.4h.1Z"/>
            <path class="st0" d="M1730.3,143.9c.9.3,1.8.3,2.7-.4,3.2-2.4,7.7-6.2,9.2-18.7.4-3.4,5.9-4.3,7.4-1.3,10.6,21.2,32.1,76.6-7,132.8-.4.5-.9,1-1.3,1.3-2.4,1.2-14.6.6-25.8-6.3,27.9-65.2,14.8-107.4,14.8-107.4h0Z"/>
            <path class="st7" d="M1671.6,255.2c3,5.5-6.1,14.3-11.5,12.2-5.8-2.3-11.3-5.5-16.1-10.1-.2,0-.3-.2-.5-.4-2.6-3.3-37.9-42.2-21.7-88.5.5-1.5,1.7-2.5,3-2.2s5.4,5.2,8.5.9c.5-.8.8-1.7.8-2.7,0-13.9,3.9-33.8,25.2-50.6-.2,0-23.7,74.5,12.4,141.3h-.1Z"/>
          </g>
          <path class="st12" d="M1878.8,509.1c-3.3-44.5-18-66.7-24.8-109.4-16.7-105.3-82.5-151.2-162.3-149.7-79.7-.2-144.8,47-159.8,152.5-6.1,42.8-20.4,65.2-23,109.8-6.6,119.3,84.4,192,185,192.7h3.2c100.7-2.5,190.4-76.7,181.7-195.8h0Z"/>
          <path class="st5" d="M1514.9,574.2c21.8,82,97.2,130.2,179,130.7h3.2c81.8-2,156.4-51.3,176.8-133.7h0c-107.8-73.4-251.2-73.4-358.8,3h0"/>
          <g>
            <g>
              <path class="st8" d="M1537.8,372.8s49.3,18.8,55.2-.2c2.8-9.1-29.5-27.2-48.1-22.4,0,0-4.7,12.2-7.1,22.7h0Z"/>
              <path class="st8" d="M1530.9,409.1s50.8,12.1,53.3-6.5c.8-6.2-14.6-21-48.5-20.7,0,0-2.8,10.1-4.8,27.2Z"/>
              <path class="st8" d="M1524.4,437.9s9.4,13.5,42.3,1.7c5.9-2.1,6.4-10.4.9-13.3-11.2-5.9-21.8-7.7-38.2-9.2,0,0-3.3,14.6-5,20.7h0Z"/>
            </g>
            <g>
              <path class="st8" d="M1847.8,370.9s-49.2,19.7-55.3.8c-2.9-9,29.2-27.7,47.9-23.2,0,0,4.9,12.1,7.4,22.5h0Z"/>
              <path class="st8" d="M1855.3,407.1s-50.7,13-53.5-5.6c-.9-6.2,14.5-21.4,48.4-21.6,0,0,2.4,10.3,5.2,27.2h0Z"/>
              <path class="st8" d="M1862.3,435.8s-9.2,13.6-42.3,2.4c-5.9-2-6.6-10.3-1.2-13.2,11.1-6.1,21.8-8.1,38.1-9.8,0,0,3.5,14.6,5.4,20.7h0Z"/>
            </g>
          </g>
          <g>
            <path class="st8" d="M1643.3,256.3s-11,54.4,7.6,72.5c5.7,5.6,11.3,6.6,14.2-3.4,5.2-17.8,6.7-50.7,1.7-73.9,0,0-13.6,1.6-23.5,4.8h0Z"/>
            <path class="st8" d="M1706.1,250.2c13.2,33.7,1.2,70.8-5.4,95.7-1.8,6.8-10.8,7.4-13.4.9-8.8-22.1-20.1-57.3-11.8-96.2,4.3-.8,22.9-1.1,30.6-.4h0Z"/>
            <path class="st8" d="M1743.1,256.3s12.3,58.8-9.5,76.9c-18.2,15.2-21.4-62.1-17.6-82.2,0,0,13.4,1.2,27.1,5.3Z"/>
          </g>
        </g>
      </g>
      <g>
        <g>
          <circle class="st3" cx="1648.4" cy="547.5" r="15.4"/>
          <circle class="st3" cx="1739.9" cy="546.7" r="15.4"/>
        </g>
        <g>
          <g>
            <path class="st13" d="M1654.2,485c6.9-9.8,10.2-22.3,7.9-35-4.6-24.5-28.3-40.6-52.7-35.9-24.4,4.7-40.6,28.3-35.9,52.7,2,10.7,7.7,19.9,15.4,26.2,14.8-6.9,37.7-13.4,65.4-8h-.1Z"/>
            <g>
              <g class="st14">
                <circle cx="1617.4" cy="456.5" r="23.1"/>
              </g>
              <circle class="st15" cx="1629.1" cy="442" r="11.6"/>
              <circle class="st15" cx="1627.6" cy="464.8" r="7.2"/>
            </g>
          </g>
          <g>
            <path class="st13" d="M1733,484.3c-7.1-9.7-10.6-22.1-8.4-34.8,4.2-24.5,27.6-41.1,52.1-36.8,24.5,4.3,41.1,27.6,36.8,52.1-1.8,10.7-7.4,20-14.9,26.5-14.9-6.6-37.9-12.8-65.5-6.9h0Z"/>
            <g>
              <g class="st14">
                <circle cx="1768.9" cy="455.2" r="23.1"/>
              </g>
              <circle class="st15" cx="1780.7" cy="440.8" r="11.6"/>
              <circle class="st15" cx="1779.1" cy="463.5" r="7.2"/>
            </g>
          </g>
        </g>
        <g>
          <path class="st18" d="M1593.8,406c-1.5,0-2.9-.6-4-1.7-2.1-2.2-2.1-5.7,0-7.8,7.8-7.5,28.5-18,50.8-3.6,2.6,1.7,3.3,5.1,1.7,7.7-1.7,2.6-5.1,3.3-7.7,1.7-20.6-13.3-36.4,1.6-37.1,2.3-1.1,1-2.4,1.5-3.8,1.6v-.2Z"/>
          <path class="st18" d="M1792.1,392.6c-1.5,0-2.9-.5-4-1.7-17-17.3-35.9-6.5-36.7-6-2.6,1.6-6,.7-7.6-1.9s-.7-6,1.9-7.6c9.3-5.6,31.8-11.2,50.4,7.8,2.1,2.2,2.1,5.7,0,7.9-1.1,1-2.4,1.6-3.8,1.6h-.2Z"/>
        </g>
        <g id="mouth-3">
          <path class="st3" d="M1657.5,590.5c14,8.2,40.7,19.1,77.4,12.1,5.8-1.1,10.7,4.3,9,9.8-4,13.2-13.3,26.5-29,33-16.9,7-39,3.8-52.9-8.1-11-9.4-17.2-23-16.7-40.1.3-6.2,7-9.8,12.2-6.7Z"/>
          <path class="st16" d="M1724.2,640.1c-2.8,2-6,3.8-9.4,5.2-16.9,7-39,3.8-52.9-8.1-3.4-2.9-6.4-6.3-8.8-10,0,0,32.9-16.6,71.2,12.9h0Z"/>
        </g>
      </g>
    </g>
  </g>
</svg>